<svg xmlns="http://www.w3.org/2000/svg" viewBox="0 0 128 128" fill="none" role="img" aria-label="EduOS">
  <defs>
    <linearGradient id="eo-bg" x1="0" y1="0" x2="128" y2="128" gradientUnits="userSpaceOnUse">
      <stop offset="0" stop-color="#0c1a3a"/>
      <stop offset="1" stop-color="#1e3a5f"/>
    </linearGradient>
    <linearGradient id="eo-glyph" x1="32" y1="40" x2="96" y2="88" gradientUnits="userSpaceOnUse">
      <stop offset="0" stop-color="#60a5fa"/>
      <stop offset="1" stop-color="#1d4ed8"/>
    </linearGradient>
  </defs>

  <rect width="128" height="128" rx="28" fill="url(#eo-bg)"/>

  <!-- open book -->
  <path d="M28 44c14 0 26-6 36-6s22 6 36 6v48c-14 0-26-6-36-6s-22 6-36 6V44z" fill="url(#eo-glyph)" opacity="0.95"/>
  <path d="M64 38v48" stroke="#93c5fd" stroke-width="3" stroke-linecap="round"/>
  <path d="M40 56h16M40 68h14M40 80h12" stroke="#bfdbfe" stroke-width="2.5" stroke-linecap="round" opacity="0.85"/>
  <path d="M72 56h16M74 68h14M76 80h12" stroke="#bfdbfe" stroke-width="2.5" stroke-linecap="round" opacity="0.85"/>

  <!-- circuit node (OS) -->
  <circle cx="64" cy="96" r="5" fill="#5eead4"/>
  <circle cx="64" cy="96" r="2" fill="#0f766e"/>
</svg>
