<svg viewBox="0 0 128 128" fill="none" xmlns="http://www.w3.org/2000/svg">
  <!-- Trunk -->
  <rect x="58" y="68" width="12" height="38" rx="5" fill="#2d7a3c"/>
  
  <!-- Central Leaf -->
  <ellipse cx="64" cy="48" rx="20" ry="32" fill="#44b155" stroke="#206a2d" stroke-width="3"/>
  <!-- Left Leaf -->
  <ellipse cx="40" cy="58" rx="14" ry="22" fill="#44b155" stroke="#206a2d" stroke-width="3" />
  <!-- Right Leaf -->
  <ellipse cx="88" cy="58" rx="14" ry="22" fill="#44b155" stroke="#206a2d" stroke-width="3" />
  <!-- Far Left Leaf -->
  <ellipse cx="28" cy="75" rx="8" ry="13" fill="#44b155" stroke="#206a2d" stroke-width="2" />
  <!-- Far Right Leaf -->
  <ellipse cx="100" cy="75" rx="8" ry="13" fill="#44b155" stroke="#206a2d" stroke-width="2" />

  <!-- Veins (white branches) -->
  <!-- Central -->
  <path d="M64 112V35" stroke="#fff" stroke-width="3" stroke-linecap="round"/>
  <path d="M64 65L64 48" stroke="#fff" stroke-width="2" stroke-linecap="round"/>
  <!-- Left veins -->
  <path d="M64 62L50 52" stroke="#fff" stroke-width="2" stroke-linecap="round"/>
  <path d="M64 77L43 66" stroke="#fff" stroke-width="2" stroke-linecap="round"/>
  <!-- Right veins -->
  <path d="M64 62L78 52" stroke="#fff" stroke-width="2" stroke-linecap="round"/>
  <path d="M64 77L85 66" stroke="#fff" stroke-width="2" stroke-linecap="round"/>
  <!-- Far left/right small veins -->
  <path d="M58 80L34 78" stroke="#fff" stroke-width="1.5" stroke-linecap="round"/>
  <path d="M70 80L94 78" stroke="#fff" stroke-width="1.5" stroke-linecap="round"/>
  
  <!-- Pebble ground -->
  <ellipse cx="64" cy="112" rx="40" ry="12" fill="#444" opacity="0.2"/>
  <ellipse cx="64" cy="118" rx="28" ry="6" fill="#222" opacity="0.5"/>
</svg>